<!-- <svg width="51" height="64" viewBox="0 0 51 64" fill="none" xmlns="http://www.w3.org/2000/svg">
    <path fill-rule="evenodd" clip-rule="evenodd" d="M15.3416 59.1304C19.9041 59.4102 24.6258 57.4 27.3934 53.7412C31.1983 48.705 30.8927 41.594 28.9299 35.5936C27.9455 32.5838 26.6036 29.7116 25.2619 26.8395C23.9286 23.9856 22.5953 21.1318 21.6128 18.1433C20.7894 15.6932 20.3099 13.1407 20.1881 10.5588C20.0756 8.31831 20.3671 6.0758 21.049 3.93858C21.5135 2.52399 22.2039 1.19393 23.0935 0C21.4674 0.91738 19.9224 1.97147 18.4751 3.15087C16.4788 5.42954 14.9465 8.07608 13.9643 10.9419C12.1404 16.3949 12.7977 21.6475 13.3686 26.2102C13.9605 30.9399 14.4596 34.9282 12.0059 37.6296C11.1226 38.6885 9.89412 39.4018 8.5367 39.6441C6.6902 39.8894 4.39176 39.0587 3.32432 37.1776C2.42474 35.585 2.77338 33.9019 2.92403 33.1917C3.07682 32.5303 3.34177 31.8999 3.7074 31.3279C2.08743 33.3844 0.951686 35.7797 0.384561 38.3355C-0.143148 40.8282 -0.127582 43.4053 0.430219 45.8915C0.98802 48.3776 2.07495 50.7143 3.617 52.7426C4.30189 53.629 5.07327 54.4452 5.91974 55.1789C8.54766 57.4848 11.8551 58.8719 15.3416 59.1304ZM23.7908 49.3596C26.6186 44.7366 25.6674 38.026 21.7463 32.0944C22.379 33.7215 24.4751 39.6918 21.7119 45.5243C21.0533 46.9233 19.9299 49.2348 17.3474 50.7284C13.6243 52.8721 9.66012 51.7314 8.79929 51.4645C9.2254 51.8132 13.8998 55.4074 18.8754 53.6167C21.8306 52.5551 23.2989 50.1615 23.7719 49.3904L23.7908 49.3596Z" fill="#E84332"/>
    <path d="M50.4669 44.2272C50.1747 47.0264 49.3235 49.7367 47.9647 52.1942C42.4771 62.1314 30.8561 63.5658 28.3326 63.5399C27.1854 63.5261 26.0411 63.4192 24.9108 63.2202C23.8086 63.0246 22.7221 62.7473 21.6602 62.3907C23.2057 62.5251 24.7624 62.3579 26.2453 61.8981C32.1563 60.0187 36.3651 53.3651 36.5105 46.6467V46.517C36.5704 41.3843 34.6585 36.4546 32.5242 31.8014C30.3899 27.1482 27.9776 22.5511 26.8997 17.5436C26.8099 17.1116 26.7286 16.6795 26.6602 16.2129C26.5918 15.7463 26.5404 15.4223 26.4977 15.0291C26.0699 10.7086 26.8142 6.23683 29.4703 2.88843C28.8071 5.23186 28.7938 7.71426 29.4318 10.0648C30.0605 12.2899 31.1641 13.7934 32.3061 15.3272C33.9141 17.4448 35.7712 19.357 37.8364 21.0217C41.9126 24.5213 45.963 27.9907 48.3497 32.9247C50.0551 36.4292 50.7869 40.3356 50.4669 44.2272Z" fill="#1D1D1B"/>
</svg> -->
<svg width="69" height="69" xmlns="http://www.w3.org/2000/svg">

 <g>
  <title>background</title>
  <rect fill="none" id="canvas_background" height="71" width="71" y="-1" x="-1"/>
 </g>
 <g>
  <title>Layer 1</title>
  <rect rx="10" id="svg_3" height="69.032258" width="70" y="0" x="0" stroke-opacity="null" stroke-width="null" stroke="null" fill="#ffffff"/>
  <g id="svg_4">
   <path id="svg_1" fill="#E84332" d="m25.3416,62.1304c4.5625,0.2798 9.2842,-1.7304 12.0518,-5.3892c3.8049,-5.0362 3.4993,-12.1472 1.5365,-18.1476c-0.9844,-3.0098 -2.3263,-5.882 -3.668,-8.7541c-1.3333,-2.8539 -2.6666,-5.7077 -3.6491,-8.6962c-0.8234,-2.4501 -1.3029,-5.0026 -1.4247,-7.5845c-0.1125,-2.24049 0.179,-4.483 0.8609,-6.62022c0.4645,-1.41459 1.1549,-2.74465 2.0445,-3.93858c-1.6261,0.91738 -3.1711,1.97147 -4.6184,3.15087c-1.9963,2.27867 -3.5286,4.92521 -4.5108,7.79103c-1.8239,5.453 -1.1666,10.7056 -0.5957,15.2683c0.5919,4.7297 1.091,8.718 -1.3627,11.4194c-0.8833,1.0589 -2.11178,1.7722 -3.4692,2.0145c-1.8465,0.2453 -4.14494,-0.5854 -5.21238,-2.4665c-0.89958,-1.5926 -0.55094,-3.2757 -0.40029,-3.9859c0.15279,-0.6614 0.41774,-1.2918 0.78337,-1.8638c-1.61997,2.0565 -2.75571,4.4518 -3.32284,7.0076c-0.52771,2.4927 -0.51214,5.0698 0.04566,7.556c0.5578,2.4861 1.64473,4.8228 3.18678,6.8511c0.68489,0.8864 1.45627,1.7026 2.30274,2.4363c2.62792,2.3059 5.93536,3.693 9.42186,3.9515zm8.4492,-9.7708c2.8278,-4.623 1.8766,-11.3336 -2.0445,-17.2652c0.6327,1.6271 2.7288,7.5974 -0.0344,13.4299c-0.6586,1.399 -1.782,3.7105 -4.3645,5.2041c-3.7231,2.1437 -7.68728,1.003 -8.54811,0.7361c0.42611,0.3487 5.10051,3.9429 10.07611,2.1522c2.9552,-1.0616 4.4235,-3.4552 4.8965,-4.2263l0.0189,-0.0308z" clip-rule="evenodd" fill-rule="evenodd"/>
   <path id="svg_2" fill="#1D1D1B" d="m60.4669,47.2272c-0.2922,2.7992 -1.1434,5.5095 -2.5022,7.967c-5.4876,9.9372 -17.1086,11.3716 -19.6321,11.3457c-1.1472,-0.0138 -2.2915,-0.1207 -3.4218,-0.3197c-1.1022,-0.1956 -2.1887,-0.4729 -3.2506,-0.8295c1.5455,0.1344 3.1022,-0.0328 4.5851,-0.4926c5.911,-1.8794 10.1198,-8.533 10.2652,-15.2514l0,-0.1297c0.0599,-5.1327 -1.852,-10.0624 -3.9863,-14.7156c-2.1343,-4.6532 -4.5466,-9.2503 -5.6245,-14.2578c-0.0898,-0.432 -0.1711,-0.8641 -0.2395,-1.3307c-0.0684,-0.4666 -0.1198,-0.7906 -0.1625,-1.1838c-0.4278,-4.3205 0.3165,-8.79227 2.9726,-12.14067c-0.6632,2.34343 -0.6765,4.82583 -0.0385,7.17637c0.6287,2.2251 1.7323,3.7286 2.8743,5.2624c1.608,2.1176 3.4651,4.0298 5.5303,5.6945c4.0762,3.4996 8.1266,6.969 10.5133,11.903c1.7054,3.5045 2.4372,7.4109 2.1172,11.3025z"/>
  </g>
 </g>
</svg>